@startuml UserSystem

interface INewsDB {
  + saveNews(title, category, discription, source):boolean
  + getNews(): array
  + deleteNews(): boolean
}

class NewsDB {
  + const DB_NAME = "news.db"
  -_db: SQLite3
  +_construct()
  +_destruct()
  +saveNews():boolean
  +getNews():array
  +deleteNews():boolean
  #getDB():SQLite3
  
}

class SQLite3 {
  + exec()
  + querty()
  +escapeString()
  +lastErrorMsg()
  +close()
}
INewsDB <|.. NewsDB 
NewsDB --> SQLite3

@enduml
